# xmcd
#
# Track frame offsets:
#	150
#	15076
#	26454
#	36672
#	51108
#	64766
#	78493
#	92875
#	110397
#	126123
#	140023
#	153174
#
# Disc length: 2199 seconds
#
# Revision: 0
# Processed by: cddbd v1.5.2PL0 Copyright (c) Steve Scherf et al.
# Submitted via: EasyCDDAExtractor 16.0.6.1
#
DISCID=9608950c
DTITLE=Various Artist - Δώδεκα μεγάλα τραγούδια-Λευτ. Παπαδόπουλος
DYEAR=1998
DGENRE=Λαϊκή
TTITLE0=Νταλάρας Γιώργος - Αχ χελιδόνι μου [ΜΛοϊζου-ΛΠαπαδόπουλου]
TTITLE1=Καλατζής Γιάννης - Τζαμαϊκα [ΜΛοϊζου-ΛΠαπαδόπουλου]
TTITLE2=Ευσταθίου Δημήτρης - Η δουλειά κάνει τους άντρες [ΜΛοϊζου-ΛΠαπαδόπουλο
TTITLE2=υ]
TTITLE3=Καζαντζίδης Στέλιος - Όταν βλέπετε να κλαίω [ΜΛοϊζου-ΛΠαπαδόπουλου]
TTITLE4=Μοσχολιού Βίκυ - Βάλε κι άλλο πιάτο στο τραπέζι [ΣΞαρχάκου-ΛΠαπαδόπουλ
TTITLE4=ου]
TTITLE5=Μπιθικώτσης Γρηγόρης-Κούρτη Ρία - Άπονη ζωή [ΣΞαρχάκου-ΛΠαπαδόπουλου]
TTITLE6=Αλεξίου Χάρις - Γύριζαν τα τραίνα [ΓΣπανού-ΛΠαπαδόπουλου]
TTITLE7=Πάριος Γιάννης - Είπα να φύγω [ΓΣπανού-ΛΠαπαδόπουλου]
TTITLE8=Κόκοτας Σταμάτης - Πες πως μ' αντάμωσες [ΓΣπανού-ΛΠαπαδόπουλου]
TTITLE9=Μητσιάς Μανώλης-Γκίκα Βούλα - Αυτά τα χέρια [ΔΜούτση-ΛΠαπαδόπουλου]
TTITLE10=Βελής Λεωνίδας - Με το στόμα γεμάτο φιλιά [ΧΝικολόπουλου-ΛΠαπαδόπουλο
TTITLE10=υ]
TTITLE11=Διονυσίου Στράτος - Κι άλλος ένας μάγκας πάει [ΧΝικολόπουλου-ΛΠαπαδόπ
TTITLE11=ουλου]
EXTD=
EXTT0=
EXTT1=
EXTT2=
EXTT3=
EXTT4=
EXTT5=
EXTT6=
EXTT7=
EXTT8=
EXTT9=
EXTT10=
EXTT11=
PLAYORDER=
